<svg class="img-fluid" id="outputsvg" xmlns="http://www.w3.org/2000/svg" style="transform: matrix(1.3, 0, 0, 1.3, 1.03991, 91.52); max-height: none; transition: none 0s ease 0s;" viewBox="0 0 4000 1500"><g id="l1jxbU6xe6Y0cau2G8fmmMH" fill="rgb(106,31,84)" style="transform: none;"><g style="transform: none;"><path id="phznqyrMC" d="M0 750 l0 -750 2000 0 2000 0 0 750 0 750 -2000 0 -2000 0 0 -750z m648 384 c41 -17 41 -25 0 -13 -18 5 -71 9 -118 9 -69 0 -92 -4 -124 -23 -56 -31 -88 -96 -94 -192 l-5 -75 219 -2 219 -3 3 -23 c5 -35 -25 -115 -59 -153 l-30 -34 23 33 c17 24 23 51 26 102 l4 70 -196 0 -196 0 0 -49 c0 -60 13 -97 48 -136 16 -17 9 -14 -15 9 -161 150 -83 453 127 497 44 9 125 1 168 -17z m627 -10 c58 -33 101 -86 121 -147 19 -58 13 -107 -22 -159 -26 -41 -113 -88 -237 -128 -47 -15 -81 -34 -109 -61 l-40 -38 4 -81 c3 -77 5 -83 35 -110 18 -16 52 -34 75 -41 60 -16 164 -7 215 20 48 24 53 25 53 11 0 -6 -28 -24 -62 -40 -103 -49 -223 -36 -296 33 -34 31 -72 110 -72 148 0 45 38 115 78 146 19 14 83 43 141 63 178 61 201 83 201 194 0 90 -24 136 -85 166 -39 19 -58 21 -144 18 -90 -3 -102 -6 -149 -35 -35 -21 -52 -28 -52 -19 0 19 87 73 135 85 65 17 159 5 210 -25z m564 16 c11 -7 -3 -9 -46 -10 -103 0 -105 -6 -101 -305 l3 -210 88 3 c55 2 87 0 87 -7 0 -6 -36 -11 -87 -13 l-88 -3 -5 -110 c-6 -124 -14 -121 -29 8 -6 48 -13 92 -16 97 -4 6 -21 11 -38 11 l-32 1 30 7 30 6 5 215 c5 218 11 252 48 294 9 10 26 22 37 27 22 10 90 3 114 -11z m581 -18 c54 -33 105 -98 122 -155 20 -70 14 -167 -14 -229 -31 -67 -67 -102 -136 -135 -44 -21 -64 -24 -110 -21 -57 5 -119 24 -110 34 3 2 17 0 32 -6 40 -15 148 -12 188 5 87 36 125 133 116 290 -7 101 -36 168 -87 202 -29 20 -47 23 -125 23 -113 0 -151 -16 -186 -80 -21 -38 -25 -61 -28 -153 -5 -128 8 -187 50 -241 21 -26 25 -35 12 -28 -30 16 -51 43 -84 107 -54 108 -37 240 42 330 64 72 125 97 218 89 36 -3 70 -14 100 -32z m1121 28 c89 -17 74 -25 -49 -25 -104 0 -120 -2 -147 -22 -46 -32 -76 -101 -82 -188 l-6 -75 219 -2 219 -3 -2 -41 c-2 -45 -40 -131 -68 -154 -10 -8 -6 3 9 24 21 32 26 50 26 102 l0 64 -195 0 -195 0 0 -49 c0 -60 13 -97 48 -136 22 -25 20 -24 -12 5 -163 147 -91 449 119 501 43 10 56 10 116 -1z m-729 -217 c2 -120 0 -219 -4 -221 -4 -2 -10 -30 -14 -62 -4 -36 -12 -61 -20 -64 -12 -4 -14 42 -14 279 l0 285 25 0 24 0 3 -217z m254 -324 c19 -32 -84 -36 -115 -5 -14 15 -10 16 46 16 35 0 65 -5 69 -11z m-2481 -19 c-11 -5 -42 -8 -70 -8 l-50 1 55 7 c79 10 88 10 65 0z m2947 -2 c-9 -4 -37 -7 -62 -7 -25 0 -53 3 -62 7 -10 4 18 7 62 7 44 0 72 -3 62 -7z"></path></g></g><g id="l29cLMzTZqQvcqWMbC1oiZQ" fill="rgb(243,226,221)" style="transform: none;"><g style="transform: none;"><path id="psxCfnFbI" d="M450 1181 c-85 -18 -165 -93 -196 -182 -28 -81 -26 -218 4 -284 50 -110 138 -165 263 -165 61 0 85 5 128 26 88 44 136 133 129 239 l-3 50 -219 3 -219 2 7 48 c16 118 83 182 191 181 56 0 76 -5 163 -40 29 -12 34 -12 54 9 l22 22 -24 25 c-40 42 -100 65 -186 70 -43 2 -95 1 -114 -4z m230 -406 c0 -96 -108 -174 -202 -146 -69 21 -128 90 -128 151 0 19 6 20 165 20 l165 0 0 -25z"></path><path id="p1Fuo2KHPU" d="M1030 1177 c-44 -12 -124 -61 -148 -89 -9 -11 -6 -22 14 -51 13 -20 28 -37 32 -37 5 0 24 12 43 26 88 67 193 83 276 43 101 -49 112 -190 19 -245 -17 -10 -78 -34 -137 -54 -123 -42 -166 -72 -197 -133 -44 -88 -21 -218 50 -284 77 -72 232 -89 345 -38 34 15 69 35 78 45 15 17 15 21 1 48 -9 17 -21 34 -27 37 -6 4 -36 -7 -68 -24 -100 -53 -188 -50 -253 8 -25 22 -32 37 -36 79 -4 51 -3 54 36 91 28 27 62 46 109 61 202 66 261 117 270 233 10 114 -38 206 -134 262 -40 24 -60 28 -137 31 -55 3 -109 -1 -136 -9z"></path><path id="pfqObCDCe" d="M1695 1181 c-11 -5 -28 -17 -37 -27 -37 -42 -43 -76 -48 -293 l-5 -215 -39 0 c-35 -1 -40 -5 -47 -29 -6 -24 -4 -29 17 -38 14 -5 36 -9 50 -9 30 0 33 -7 48 -122 l11 -93 37 -3 37 -3 3 108 3 108 85 1 85 2 3 42 3 42 -88 -3 -88 -3 -3 184 c-3 208 4 256 44 266 13 3 36 4 49 0 14 -3 35 -9 48 -12 17 -4 26 1 40 24 l17 30 -36 23 c-39 24 -153 36 -189 20z"></path><path id="pAeNPeKTf" d="M2205 1181 c-52 -14 -92 -39 -133 -86 -55 -62 -75 -127 -74 -237 0 -77 4 -95 32 -152 55 -111 117 -149 252 -154 76 -4 94 -1 140 21 70 33 105 68 136 136 22 47 26 70 26 151 1 52 -5 114 -12 137 -17 57 -68 122 -124 156 -40 25 -59 30 -130 33 -46 2 -96 0 -113 -5z m186 -104 c97 -64 118 -290 36 -384 -99 -112 -272 -68 -307 79 -19 76 -9 195 21 249 31 57 75 79 155 79 47 0 69 -5 95 -23z"></path><path id="p51cXtTeQ" d="M3395 1181 c-83 -22 -153 -85 -186 -168 -34 -86 -33 -227 2 -303 52 -112 144 -165 277 -159 66 3 86 9 128 34 71 44 108 116 108 210 l1 70 -219 3 -218 2 7 48 c9 63 43 129 80 155 45 33 172 31 244 -3 54 -25 73 -23 95 12 12 19 -14 44 -81 78 -46 23 -184 36 -238 21z m235 -411 c0 -92 -105 -166 -200 -140 -70 19 -130 88 -130 150 0 19 6 20 165 20 l165 0 0 -30z"></path><path id="puzET8jdO" d="M2730 865 l0 -315 33 0 c47 0 53 9 61 73 l8 58 26 -40 c41 -61 77 -84 138 -89 84 -7 104 2 104 44 0 55 -15 75 -46 64 -64 -25 -146 4 -189 67 -25 37 -25 40 -25 245 l0 208 -55 0 -55 0 0 -315z"></path></g></g></svg>